<svg id="Layer_1" data-name="Layer 1" xmlns="http://www.w3.org/2000/svg" viewBox="0 0 84.78 112.82"><title>logo-new</title><path d="M72,61c6,0,10.22,4.18,10.22,10.23v13.1c0,6-4.17,10.23-10.22,10.23H55.87V112.8H45.5V61ZM69.4,84.72a2.21,2.21,0,0,0,2.45-2.45V73.2a2.2,2.2,0,0,0-2.45-2.45H55.87v14Z"/><path d="M10.33,52.42H26.74C32.79,52.42,37,48.24,37,42.2V33.84H26.6v6.34a2.21,2.21,0,0,1-2.45,2.45H12.92a2.21,2.21,0,0,1-2.45-2.45V12.24a2.21,2.21,0,0,1,2.45-2.45H24.15a2.21,2.21,0,0,1,2.45,2.45v6.34H37V10.22C37,4.18,32.79,0,26.74,0H10.33C4.28,0,.1,4.18.1,10.22v32C.1,48.24,4.28,52.42,10.33,52.42Z"/><polygon points="56.55 30.53 74.41 30.53 74.41 52.13 84.78 52.13 84.78 0.29 74.41 0.29 73.41 20.74 56.55 20.74 56.55 0.29 46.18 0.29 46.18 52.13 56.55 52.13 56.55 30.53"/><path d="M27.29,60.4H10.23C4.18,60.4,0,64.58,0,70.62v32c0,6,4.18,10.22,10.23,10.22H27.29c6.05,0,10.23-4.18,10.23-10.22V83.51H17.64v9.36h9.51v7.71A2.21,2.21,0,0,1,24.7,103H12.82a2.21,2.21,0,0,1-2.45-2.45V72.64a2.21,2.21,0,0,1,2.45-2.45H24.7a2.21,2.21,0,0,1,2.45,2.45v4.75H37.52V70.62C37.52,64.58,33.34,60.4,27.29,60.4Z"/><polygon points="73.92 99.8 62.48 99.8 72.75 112.8 84.19 112.8 73.92 99.8"/></svg>