<?xml version="1.0" encoding="utf-8"?>
<!-- Generator: Adobe Illustrator 22.0.1, SVG Export Plug-In . SVG Version: 6.00 Build 0)  -->
<svg version="1.1" id="Layer_1" xmlns="http://www.w3.org/2000/svg" xmlns:xlink="http://www.w3.org/1999/xlink" x="0px" y="0px"
	 viewBox="0 0 146.5 146.5" style="enable-background:new 0 0 146.5 146.5;" xml:space="preserve">
<g>
	<g>
		<g>
			<path d="M135.5,109.9L72.5,1l1.8,0c12.3,0.1,24.4,3.5,35.1,9.6l0,0c34,19.6,46.2,63.4,27.1,97.8L135.5,109.9z M76,3l59.5,102.8
				c17.4-33.1,5.4-74.7-27.2-93.5l0,0C98.5,6.7,87.3,3.5,76,3z"/>
		</g>
	</g>
	<g>
		<g>
			<path d="M10.5,109.8L73.4,0.6l63.1,109.1L10.5,109.8z M73.4,4.6L14,107.8l119.1-0.1L73.4,4.6z"/>
		</g>
	</g>
	<g>
		<g>
			<path d="M73,145.4c-12.2,0-24.5-3.1-35.8-9.6c-10.7-6.1-19.6-15-25.9-25.5l-0.9-1.5l125.9-0.1l-0.9,1.5
				C121.9,132.8,97.7,145.4,73,145.4z M13.9,110.8c6.1,9.6,14.4,17.6,24.3,23.3l0,0c32.6,18.8,74.6,8.2,94.5-23.4L13.9,110.8z"/>
		</g>
	</g>
	<g>
		<g>
			<path d="M11.3,110.5l-0.9-1.5C-2.1,86.7-2.1,59.2,10.6,37.2l0,0c12.7-22,36.4-35.9,62-36.2l1.8,0L11.3,110.5z M12.4,38.2
				c-12,20.9-12.4,46.9-1,68.2L70.9,3C46.7,3.9,24.4,17.2,12.4,38.2L12.4,38.2z"/>
		</g>
	</g>
	<g>
		<g>
			<path d="M73.2,1c-25,0.1-49.2,13-62.6,36.2c-13.3,23.1-12.4,50.7,0.1,72.3l0.1,0.2l0.1,0.2c6.1,10.5,15,19.6,26.2,26
				c34.4,19.8,78.5,8.1,98.5-26.2l0.2-0.4l0.2-0.4c19.6-34.5,7.6-78.5-26.8-98.3C98.1,4.1,85.8,1,73.6,1 M108.8,11.5
				c33.7,19.4,45.6,62.5,26.7,96.4L74.2,2C86,2.1,97.9,5.2,108.8,11.5z M73.4,2.6l61.4,106.1l-122.6,0.1L73.4,2.6z M11.5,37.7
				C24.5,15,48.2,2.3,72.6,2L11.3,108.4C-0.7,87.2-1.6,60.3,11.5,37.7z M37.7,135c-10.9-6.3-19.5-15-25.6-25.2l122.3-0.1
				C114.6,143,71.4,154.4,37.7,135z"/>
			<path d="M73.1,146.5c-12.4,0-24.9-3.1-36.4-9.7c-11-6.3-20.2-15.5-26.6-26.4l-0.2-0.4C-3.2,87.3-3.2,59.2,9.8,36.7
				C22.7,14.1,47,0.1,73.2,0l0,1l0.2-0.4L73.6,1l0-1c12.7,0,25.2,3.4,36.2,9.7c34.8,20,47,64.7,27.2,99.6l-0.5,0.8
				C122.9,133.4,98.3,146.5,73.1,146.5z M13.9,110.8c6.1,9.6,14.4,17.6,24.3,23.3c32.6,18.8,74.6,8.2,94.5-23.4L13.9,110.8z
				 M73.4,4.6L14,107.8l119.1-0.1L73.4,4.6z M12.4,38.2c-12,20.9-12.4,46.9-1,68.2L70.9,3C46.7,3.9,24.4,17.2,12.4,38.2L12.4,38.2z
				 M76,3l59.5,102.8c17.4-33.1,5.4-74.7-27.2-93.5C98.5,6.7,87.3,3.5,76,3z"/>
		</g>
	</g>
</g>
<g>
	<g>
		<path d="M73.5,130.5c-11.7,0-21.3-9.5-21.3-21.3c0-11.7,9.5-21.3,21.3-21.3s21.3,9.5,21.3,21.3C94.8,121,85.3,130.5,73.5,130.5z
			 M73.5,89c-11.2,0-20.3,9.1-20.3,20.3c0,11.2,9.1,20.3,20.3,20.3c11.2,0,20.3-9.1,20.3-20.3C93.8,98.1,84.7,89,73.5,89z"/>
		<path d="M73.5,131.5c-12.3,0-22.3-10-22.3-22.3C51.3,97,61.3,87,73.5,87c12.3,0,22.3,10,22.3,22.3
			C95.8,121.5,85.8,131.5,73.5,131.5z M73.5,90c-10.6,0-19.3,8.6-19.3,19.3c0,10.6,8.6,19.3,19.3,19.3c10.6,0,19.3-8.6,19.3-19.3
			C92.8,98.6,84.2,90,73.5,90z"/>
	</g>
</g>
</svg>
